<svg id="aramex_logo" data-name="aramex logo" xmlns="http://www.w3.org/2000/svg" width="91.264" height="15" viewBox="0 0 91.264 15">
  <path id="Path_200" data-name="Path 200" d="M10.934,1.978A6.238,6.238,0,0,0,8.9.549,5.69,5.69,0,0,0,6.538.055,6.064,6.064,0,0,0,1.923,2.143,7.782,7.782,0,0,0,0,7.527,7.487,7.487,0,0,0,1.978,12.8a6.111,6.111,0,0,0,6.923,1.7,6.57,6.57,0,0,0,2.033-1.429V14.56h3.516V.44H10.934S10.934,1.978,10.934,1.978ZM10,10.495a3.609,3.609,0,0,1-2.747,1.154A3.439,3.439,0,0,1,4.56,10.44a4.344,4.344,0,0,1-1.1-3.022,4.206,4.206,0,0,1,1.1-2.967A3.492,3.492,0,0,1,7.253,3.3,3.609,3.609,0,0,1,10,4.451a3.838,3.838,0,0,1,.934,2.857A4.116,4.116,0,0,1,10,10.495ZM34.615,1.978A6.238,6.238,0,0,0,32.582.549,5.69,5.69,0,0,0,30.22.055,6.064,6.064,0,0,0,25.6,2.143a7.643,7.643,0,0,0-1.923,5.33,7.487,7.487,0,0,0,1.978,5.275,6.111,6.111,0,0,0,6.923,1.7,6.57,6.57,0,0,0,2.033-1.429v1.484h3.516V.44H34.615Zm-.934,8.516a3.609,3.609,0,0,1-2.747,1.154,3.44,3.44,0,0,1-2.692-1.209,4.344,4.344,0,0,1-1.1-3.022,4.206,4.206,0,0,1,1.1-2.967A3.492,3.492,0,0,1,30.934,3.3a3.609,3.609,0,0,1,2.747,1.154,3.838,3.838,0,0,1,.934,2.857A4.116,4.116,0,0,1,33.681,10.495ZM59.286.769A4.752,4.752,0,0,0,56.648.055a5.221,5.221,0,0,0-2.637.659,5.229,5.229,0,0,0-2.033,1.923,4.857,4.857,0,0,0-1.7-1.923A4.375,4.375,0,0,0,47.912.055a5.947,5.947,0,0,0-2.418.495,6.236,6.236,0,0,0-1.978,1.484V.385H40V14.505h3.516V8.242a9.514,9.514,0,0,1,.33-2.967,3.3,3.3,0,0,1,1.1-1.484,2.79,2.79,0,0,1,1.593-.549,2,2,0,0,1,1.319.44,2.327,2.327,0,0,1,.824,1.264,10.471,10.471,0,0,1,.275,2.747v6.813h3.516V8.132A9.349,9.349,0,0,1,52.8,5.22a3.133,3.133,0,0,1,1.044-1.429A2.907,2.907,0,0,1,55.495,3.3a2.023,2.023,0,0,1,1.758.824,6.182,6.182,0,0,1,.6,3.242v7.143h3.516V6.264a9.962,9.962,0,0,0-.495-3.681A3.848,3.848,0,0,0,59.286.769Zm14.4,9.615a4.661,4.661,0,0,1-3.352,1.429,4.277,4.277,0,0,1-2.692-.879,3.916,3.916,0,0,1-1.319-2.418H77.582V7.857a7.765,7.765,0,0,0-2.088-5.6A7.16,7.16,0,0,0,70.11.11a6.839,6.839,0,0,0-5.165,2.143,7.419,7.419,0,0,0-2.088,5.385A7.144,7.144,0,0,0,70.275,15a8.459,8.459,0,0,0,3.681-.769,6.355,6.355,0,0,0,2.637-2.363ZM67.8,3.9a4.147,4.147,0,0,1,2.582-.824,3.881,3.881,0,0,1,2.363.714,3.564,3.564,0,0,1,1.374,1.868H66.484A4.207,4.207,0,0,1,67.8,3.9ZM85.934,7.088,90.714.44H86.7L83.956,4.286,81.209.44H77.143l4.78,6.7-5.33,7.418H80.6l3.3-4.615,3.3,4.615h4.066ZM22.912,0a3.391,3.391,0,0,0-1.7.385A5.269,5.269,0,0,0,19.615,1.7V.495H16.264V14.615H19.78V7.253c0-2.692.714-4.011,2.527-4.011a2.791,2.791,0,0,1,.934.165A16.187,16.187,0,0,1,25.22.714,4.2,4.2,0,0,0,22.912,0Z" transform="translate(0 0)" fill="#fff"/>
</svg>
