<svg xmlns="http://www.w3.org/2000/svg" width="12.973" height="12.973" viewBox="0 0 12.973 12.973">
  <path id="Path" d="M12.623,10.552,8.554,6.486,12.62,2.418a1.19,1.19,0,0,0,0-1.688L12.243.351A1.175,1.175,0,0,0,11.4,0h0a1.184,1.184,0,0,0-.843.35L6.486,4.421,2.418.355a1.189,1.189,0,0,0-1.686,0L.353.727a1.193,1.193,0,0,0,0,1.692l4.07,4.067L.354,10.555a1.192,1.192,0,0,0,0,1.689l.378.378a1.179,1.179,0,0,0,.846.351,1.2,1.2,0,0,0,.845-.35L6.488,8.553l4.067,4.065a1.194,1.194,0,0,0,1.688,0l.378-.377a1.17,1.17,0,0,0,.353-.845,1.183,1.183,0,0,0-.349-.846Z" fill="#fff"/>
</svg>
